Coordinates
version=1
nRows=21
nColumns=12
inDegrees=yes

Units are S.I. units (second, meters, Newtons, ...)
Angles are in degrees

endheader
time	SC_y	SC_z	SC_x	AC_y	AC_z	AC_x	GH_y	GH_z	GH_yy	EL_x	PS_y
       0.0              -27.11          33.38          38.84          33.21          2.161          16.21          154.5          43.29           3.94          7.999          46.59
   0.04952              -27.11          33.38          38.85          33.22          2.159          16.21          154.4          43.29          3.945          8.015           46.6
   0.09903               -27.1          33.37          38.85          33.22          2.157          16.21          154.4          43.29          3.951          8.032          46.61
    0.1486               -27.1          33.37          38.86          33.22          2.155          16.21          154.3          43.28          3.957           8.05          46.62
    0.1981               -27.1          33.36          38.86          33.23          2.153           16.2          154.3          43.28          3.964           8.07          46.63
    0.2476               -27.1          33.36          38.87          33.23          2.151           16.2          154.2          43.28          3.971           8.09          46.65
    0.2971               -27.1          33.35          38.88          33.24          2.149           16.2          154.1          43.27          3.978          8.112          46.66
    0.3466              -27.09          33.34          38.88          33.24          2.146           16.2          154.1          43.27          3.986          8.136          46.67
    0.3961              -27.09          33.34          38.89          33.25          2.143           16.2          154.0          43.27          3.995          8.161          46.69
    0.4457              -27.09          33.33           38.9          33.25           2.14           16.2          153.9          43.26          4.004          8.188          46.71
    0.4952              -27.09          33.32          38.91          33.26          2.137          16.19          153.8          43.26          4.014          8.218          46.72
    0.5447              -27.08          33.31          38.92          33.26          2.134          16.19          153.7          43.25          4.025          8.249          46.74
    0.5942              -27.08           33.3          38.93          33.27           2.13          16.19          153.6          43.25          4.037          8.283          46.76
    0.6437              -27.08          33.29          38.94          33.28          2.126          16.19          153.5          43.24          4.049          8.319          46.78
    0.6932              -27.07          33.28          38.95          33.29          2.121          16.18          153.4          43.23          4.063          8.359          46.81
    0.7428              -27.07          33.27          38.96           33.3          2.117          16.18          153.3          43.23          4.077          8.401          46.83
    0.7923              -27.06          33.26          38.97          33.31          2.112          16.18          153.1          43.22          4.093          8.448          46.86
    0.8418              -27.06          33.24          38.99          33.32          2.106          16.17          153.0          43.21           4.11          8.499          46.89
    0.8913              -27.05          33.23           39.0          33.33            2.1          16.17          152.8           43.2          4.129          8.554          46.93
    0.9408              -27.05          33.21          39.02          33.34          2.093          16.16          152.7          43.19           4.15          8.615          46.96
    0.9903              -27.04          33.19          39.04          33.35          2.086          16.16          152.5          43.18          4.173          8.681           47.0
